pu03
version=1
nRows=13
nColumns=43
inDegrees=yes
endheader
time	pelvis_tilt	pelvis_list	pelvis_rotation	pelvis_tx	pelvis_ty	pelvis_tz	hip_flexion_r	hip_adduction_r	hip_rotation_r	knee_angle_r	ankle_angle_r	subtalar_angle_r	mtp_angle_r	hip_flexion_l	hip_adduction_l	hip_rotation_l	knee_angle_l	ankle_angle_l	subtalar_angle_l	mtp_angle_l	lumbar_extension	lumbar_bending	lumbar_rotation	neck_flexion	neck_lateral_bending	neck_rotation	arm_flex_r	arm_add_r	arm_rot_r	elbow_flex_r	pro_sup_r	wrist_flex_r	wrist_dev_r	hand_finger_flex_r	arm_flex_l	arm_add_l	arm_rot_l	elbow_flex_l	pro_sup_l	wrist_flex_l	wrist_dev_l	hand_finger_flex_l
      2.86000000	     -1.22175046	     14.11062571	    -90.37240949	      0.01726827	      0.92128366	      1.20734041	     11.66218719	     -3.64679330	     -3.77111333	     -6.56883572	     10.96861905	     -3.66965674	     -3.30638692	      4.84262817	      0.10791940	    -13.83747010	     -3.65567101	     17.73477845	     -0.66434968	     -9.51315871	     25.28176211	     -1.92592880	    -14.50925886	    -21.75955133	      4.74243804	     22.88860384	   -236.29092511	    -44.70552505	   -339.90367694	     84.18577981	    105.68043905	    -12.33401282	      3.14625030	     50.99630427	    167.19406272	    -45.62631866	     62.54438026	     87.28103006	     96.48731105	    -23.07481878	     19.02376453	     71.65908439
      2.86250000	     -1.20870974	     14.12657114	    -90.44186489	      0.01724887	      0.92135889	      1.20672733	     11.71173345	     -3.63922524	     -3.79214646	     -6.50498700	     10.96745642	     -3.66555684	     -3.31279215	      4.86325299	      0.11963554	    -13.81571499	     -3.60987359	     17.74716378	     -0.66023709	     -9.53065821	     25.23526447	     -1.88181751	    -14.47822944	    -21.80725556	      4.71507815	     22.88495490	   -236.38523148	    -44.70594854	   -340.05821284	     84.57112483	    105.64196637	    -12.37742086	      3.09615759	     50.99920200	    167.23819066	    -45.73941927	     62.43464238	     87.60234480	     96.45687197	    -23.11983012	     18.96779051	     71.67760740
      2.86500000	     -1.20360213	     14.10674514	    -90.47998686	      0.01722539	      0.92159778	      1.20619812	     11.72891223	     -3.64322379	     -3.80158287	     -6.50965446	     10.92204824	     -3.63971373	     -3.32708044	      4.88260314	      0.12243864	    -13.79874602	     -3.58873366	     17.74784458	     -0.66458863	     -9.56412560	     25.20915296	     -1.87465379	    -14.43558691	    -21.81928308	      4.64474822	     22.88840423	   -236.68492481	    -44.74119121	   -340.36858856	     84.84493611	    105.62740749	    -12.49399102	      3.05225377	     50.98776665	    167.08928438	    -45.94226293	     62.34788928	     88.04850364	     96.39966580	    -23.20515648	     18.88252009	     71.69423049
      2.86750000	     -1.17967340	     14.09273109	    -90.52146970	      0.01731996	      0.92171143	      1.20559538	     11.76288993	     -3.68167409	     -3.80092489	     -6.50201877	     10.85821522	     -3.60464311	     -3.34453646	      4.89967579	      0.15627730	    -13.79040937	     -3.59337935	     17.72488486	     -0.67031626	     -9.60497428	     25.16229782	     -1.85487168	    -14.46722221	    -21.88670744	      4.58570809	     22.88973376	   -236.93016799	    -44.63078750	   -340.63163964	     85.09064447	    105.65757411	    -12.64767163	      3.00035386	     50.96194326	    167.02649918	    -46.05305900	     62.13248211	     88.27223261	     96.34562981	    -23.34816960	     18.80905728	     71.67982763
      2.87000000	     -1.15074161	     14.07727313	    -90.53411302	      0.01730120	      0.92186774	      1.20507019	     11.77470680	     -3.70163519	     -3.80415311	     -6.48352701	     10.79195529	     -3.56476519	     -3.36411728	      4.92096910	      0.18051062	    -13.77661729	     -3.58857158	     17.69720313	     -0.68085426	     -9.65413669	     25.14174978	     -1.88688336	    -14.45369084	    -21.94158018	      4.48930144	     22.90785691	   -237.20922270	    -44.60481349	   -340.92506803	     85.35220742	    105.73067257	    -12.85572391	      2.93182988	     50.92185765	    166.84591090	    -46.16844773	     62.00700760	     88.61763159	     96.28327651	    -23.50886258	     18.70773374	     71.65697868
      2.87250000	     -1.15115560	     14.07167657	    -90.53218387	      0.01744242	      0.92175317	      1.20460771	     11.79470376	     -3.71669272	     -3.80526292	     -6.47057884	     10.78913263	     -3.56314233	     -3.36533928	      4.93425371	      0.18910432	    -13.77470817	     -3.58255340	     17.69497082	     -0.68050194	     -9.65731765	     25.11088890	     -1.86766299	    -14.45215894	    -21.94833543	      4.48697688	     22.90826241	   -237.22606581	    -44.57281921	   -340.93115742	     85.39221888	    105.73599571	    -12.86897667	      2.92389949	     50.91908743	    166.83235709	    -46.14938501	     61.99681755	     88.64283132	     96.27946289	    -23.52081941	     18.69977170	     71.65424363
      2.87500000	     -1.14905475	     14.07052458	    -90.53354245	      0.01747488	      0.92166060	      1.20440326	     11.79401129	     -3.71666631	     -3.80536848	     -6.47038584	     10.78898717	     -3.56304639	     -3.36539370	      4.93416255	      0.18914500	    -13.77460620	     -3.58232363	     17.69491106	     -0.68049599	     -9.65746140	     25.11201421	     -1.86624776	    -14.45364073	    -21.94863729	      4.48674071	     22.90830209	   -237.22649871	    -44.57237146	   -340.93259553	     85.39606575	    105.73610576	    -12.86988279	      2.92324562	     50.91891641	    166.83196713	    -46.14942006	     61.99552742	     88.64516476	     96.27923511	    -23.52154998	     18.69919545	     71.65411710
      2.87750000	     -1.08574025	     14.04654354	    -90.59496696	      0.01748566	      0.92211414	      1.20360237	     11.81625243	     -3.78028637	     -3.80630452	     -6.41974118	     10.68862862	     -3.50539387	     -3.39238395	      4.96071198	      0.25180023	    -13.72637432	     -3.56861497	     17.64703022	     -0.68845236	     -9.72226268	     25.06689153	     -1.90239758	    -14.45913884	    -21.98660101	      4.31128931	     22.95589080	   -237.80617797	    -44.47732882	   -341.56792238	     86.02762713	    105.88908670	    -13.29176301	      2.75774442	     50.83087998	    166.49381219	    -46.45451266	     61.57901763	     89.49571179	     96.19365666	    -23.83334196	     18.47082938	     71.58703364
      2.88000000	     -1.08414626	     14.04455923	    -90.59574196	      0.01753914	      0.92199888	      1.20336415	     11.81662978	     -3.78039385	     -3.80633616	     -6.41915941	     10.68849138	     -3.50530585	     -3.39244079	      4.96037064	      0.25224689	    -13.72633245	     -3.56852522	     17.64686390	     -0.68843257	     -9.72241062	     25.06755170	     -1.90070207	    -14.46055046	    -21.98729117	      4.31127462	     22.95591585	   -237.80709422	    -44.47648249	   -341.56788518	     86.02999912	    105.88951981	    -13.29246951	      2.75723395	     50.83073489	    166.49368988	    -46.45424692	     61.57779674	     89.49592041	     96.19357282	    -23.83413112	     18.47050710	     71.58676835
      2.88250000	     -0.97422354	     14.04259643	    -90.59258869	      0.01770138	      0.92225679	      1.20264115	     11.81700381	     -3.91252381	     -3.86638563	     -6.26035948	     10.44872155	     -3.38909876	     -3.50703312	      4.98502354	      0.39106443	    -13.64919095	     -3.47390884	     17.36711367	     -0.77444444	    -10.04427143	     25.11532378	     -2.02257016	    -14.48563237	    -22.65557956	      4.12736145	     23.14683725	   -238.33901783	    -44.35096202	   -341.95015157	     86.46061193	    107.00769633	    -14.57117466	      2.24359896	     50.60016966	    165.86652140	    -46.57902404	     60.99564202	     89.84726258	     96.15905451	    -25.07031560	     17.87667247	     71.12679044
      2.88500000	     -0.97316388	     14.04022178	    -90.59429875	      0.01776153	      0.92213368	      1.20238549	     11.81692187	     -3.91316992	     -3.86647686	     -6.26014386	     10.44885852	     -3.38915855	     -3.50705808	      4.98442492	      0.39122531	    -13.64917212	     -3.47386932	     17.36719424	     -0.77447105	    -10.04437848	     25.11705252	     -2.02055651	    -14.48760100	    -22.65515510	      4.12763065	     23.14677724	   -238.33917028	    -44.35086762	   -341.95046899	     86.46320218	    107.00757352	    -14.57136063	      2.24320978	     50.60024479	    165.86585214	    -46.57861023	     60.99546452	     89.84874432	     96.15902897	    -25.07064682	     17.87628779	     71.12676033
      2.88750000	     -0.97386551	     14.03004794	    -90.63296795	      0.01795267	      0.92233891	      1.20154108	     11.87638616	     -3.93050570	     -3.85765660	     -6.25204050	     10.46360324	     -3.38303075	     -3.51955584	      5.00116413	      0.41275582	    -13.63706908	     -3.40616549	     17.38835663	     -0.79133292	    -10.08814048	     25.04814631	     -1.96183410	    -14.52846287	    -22.51400798	      4.10786814	     23.16148596	   -238.61236199	    -44.27915594	   -342.25732587	     86.92070533	    107.02663776	    -14.70708426	      2.14263726	     50.61399068	    165.72617562	    -46.82092789	     60.76426238	     90.44276233	     96.15972375	    -25.23759405	     17.71126862	     71.10712882
      2.89000000	     -0.97223194	     14.02723444	    -90.63492649	      0.01799458	      0.92221101	      1.20127741	     11.87642887	     -3.93043116	     -3.85766650	     -6.25174090	     10.46361947	     -3.38300422	     -3.51959251	      5.00103728	      0.41279133	    -13.63706816	     -3.40587153	     17.38833298	     -0.79132715	    -10.08825551	     25.04947513	     -1.96051380	    -14.53096174	    -22.51419953	      4.10776125	     23.16151050	   -238.61326114	    -44.27908027	   -342.25715721	     86.92306883	    107.02680423	    -14.70737871	      2.14219916	     50.61403848	    165.72584021	    -46.82089776	     60.76336076	     90.44378151	     96.15975596	    -25.23811608	     17.71086902	     71.10701486
